<?xml version="1.0" standalone="no"?>
<!DOCTYPE svg PUBLIC "-//W3C//DTD SVG 1.1//EN" "http://www.w3.org/Graphics/SVG/1.1/DTD/svg11.dtd" >
<svg xmlns="http://www.w3.org/2000/svg" xmlns:xlink="http://www.w3.org/1999/xlink" version="1.1">
<metadata>
Created by FontForge 20170924 at Wed Apr 28 23:53:53 2010
 By www-data
Copyright (c) 2007, Stephen G. Hartke (lastname at gmail dot com). Licensed under OFL 1.1 with Reserved Font Name Aurulent.
</metadata>
<defs>
<font id="AurulentSansMono-Regular" horiz-adv-x="600" >
  <font-face 
    font-family="Aurulent Sans Mono"
    font-weight="400"
    font-stretch="normal"
    units-per-em="1000"
    panose-1="2 0 5 9 0 0 0 0 0 0"
    ascent="800"
    descent="-200"
    x-height="530"
    cap-height="725"
    bbox="-5 -205 605 998"
    underline-thickness="71"
    underline-position="-71"
    unicode-range="U+0020-205F"
  />
<missing-glyph 
 />
    <glyph glyph-name=".notdef" 
 />
    <glyph glyph-name=".null" horiz-adv-x="0" 
 />
    <glyph glyph-name="nonmarkingreturn" horiz-adv-x="333" 
 />
    <glyph glyph-name="space" unicode=" " 
 />
    <glyph glyph-name="exclam" unicode="!" 
d="M347 565l-9 -370h-76l-9 370v158h94v-158zM347 0h-94v95h94v-95z" />
    <glyph glyph-name="quotedbl" unicode="&#x22;" 
d="M463 650l-14 -120h-66l-15 120v120h95v-120zM232 650l-15 -120h-66l-14 120v120h95v-120z" />
    <glyph glyph-name="numbersign" unicode="#" 
d="M373 445h-114l-32 -167h114zM585 495l-9 -50h-137l-32 -167h137l-9 -50h-137l-44 -228h-66l43 228h-113l-44 -228h-66l43 228h-136l9 50h137l32 167h-137l9 50h137l44 228h66l-43 -228h113l44 228h66l-43 -228h136z" />
    <glyph glyph-name="dollar" unicode="$" 
d="M332 -71h-53v71q-105 3 -199 62v77q106 -65 199 -68v262q-14 5 -30 11q-64 22 -116.5 74.5t-52.5 123.5q0 72 56 121t143 58v73h53v-71q80 -4 159 -37v-88q-109 46 -159 52v-233q92 -36 140 -86t48 -126q0 -82 -52.5 -136t-135.5 -66v-74zM279 436v214q-45 -6 -74.5 -31
t-29.5 -64q0 -42 31.5 -72t72.5 -47zM332 310v-234q43 10 68 38t25 72q0 77 -93 124z" />
    <glyph glyph-name="percent" unicode="%" 
d="M484 177q0 29 -1 44t-4.5 36t-14 30.5t-26.5 9.5t-26.5 -9.5t-14 -30.5t-4.5 -36t-1 -44q0 -28 1 -43t4.5 -36t14 -31t26.5 -10t26.5 10t14 31t4.5 36t1 43zM560 177q0 -72 -32.5 -124.5t-89.5 -52.5t-89.5 52.5t-32.5 124.5t32.5 124.5t89.5 52.5t89.5 -52.5
t32.5 -124.5zM208 546q0 28 -1 43t-4.5 36t-14 31t-26.5 10t-26.5 -10t-14 -31t-4.5 -36t-1 -43t1 -43.5t4.5 -36.5t14 -30.5t26.5 -9.5t26.5 9.5t14 30.5t4.5 36.5t1 43.5zM284 546q0 -72 -32.5 -124.5t-89.5 -52.5t-89.5 52.5t-32.5 124.5t32.5 124.5t89.5 52.5
t89.5 -52.5t32.5 -124.5zM517 741l-349 -759h-85l349 759h85z" />
    <glyph glyph-name="ampersand" unicode="&#x26;" 
d="M276 -18q-104 0 -170 61t-66 160q0 80 45.5 141.5t104.5 79.5q-44 71 -44 144q0 74 44.5 123.5t109.5 49.5q64 0 109 -47t45 -116q0 -63 -38.5 -118.5t-91.5 -78.5l121 -197q28 75 28 178h79q0 -148 -62 -252l68 -110h-91l-29 45q-68 -63 -162 -63zM277 452
q41 22 61.5 56t20.5 74q0 36 -16 62t-43 26q-28 0 -43.5 -28t-15.5 -68q0 -64 36 -122zM135 203q0 -63 36 -106.5t110 -43.5q71 0 118 52l-162 250q-51 -21 -76.5 -60.5t-25.5 -91.5z" />
    <glyph glyph-name="quotesingle" unicode="'" 
d="M347 638l-11 -132h-72l-11 132v132h94v-132z" />
    <glyph glyph-name="parenleft" unicode="(" 
d="M521 -129h-81q-50 51 -77 79.5t-67.5 79t-61.5 90t-37.5 91.5t-16.5 104t16.5 104t37.5 91.5t61.5 90t67.5 79t77 79.5h81q-55 -55 -92.5 -99.5t-76 -102t-58 -118.5t-19.5 -124t19.5 -124t58 -118.5t76 -102t92.5 -99.5z" />
    <glyph glyph-name="parenright" unicode=")" 
d="M420 315q0 -52 -16.5 -104t-37.5 -91.5t-61.5 -90t-67.5 -79t-77 -79.5h-81q55 55 92.5 99.5t76 102t58 118.5t19.5 124t-19.5 124t-58 118.5t-76 102t-92.5 99.5h81q50 -51 77 -79.5t67.5 -79t61.5 -90t37.5 -91.5t16.5 -104z" />
    <glyph glyph-name="asterisk" unicode="*" 
d="M531 275l-40 -70l-18 10q-31 18 -82 57t-70 52q2 -19 10.5 -84.5t8.5 -101.5v-20h-80v20q0 35 8.5 99t9.5 87q-16 -11 -68 -51t-83 -58l-18 -10l-40 70l17 10q31 18 91.5 43t79.5 34q-15 7 -77.5 32.5t-93.5 43.5l-17 10l40 70l18 -10q31 -18 82 -57t70 -52
q-2 19 -10.5 84.5t-8.5 101.5v20h80v-20q0 -35 -8.5 -99t-9.5 -87q16 11 68 51t83 58l18 10l40 -70l-17 -10q-31 -18 -91.5 -43t-79.5 -34q15 -7 77.5 -32.5t93.5 -43.5z" />
    <glyph glyph-name="plus" unicode="+" 
d="M560 246h-221v-212h-78v212h-221v72h221v212h78v-212h221v-72z" />
    <glyph glyph-name="comma" unicode="," 
d="M371 32l-107 -174h-89l54 174v63h142v-63z" />
    <glyph glyph-name="hyphen" unicode="-" 
d="M560 246h-520v72h520v-72z" />
    <glyph glyph-name="period" unicode="." 
d="M371 0h-142v142h142v-142z" />
    <glyph glyph-name="slash" unicode="/" 
d="M605 759l-521 -888h-89l521 888h89z" />
    <glyph glyph-name="zero" unicode="0" 
d="M460 363q0 55 -2.5 90.5t-15.5 81.5t-37 80q-43 57 -105 57t-105 -57q-24 -34 -37 -80t-15.5 -81.5t-2.5 -90.5q0 -56 2.5 -91.5t15.5 -81.5t37 -80q43 -57 105 -57t105 57q24 34 37 80t15.5 81.5t2.5 91.5zM300 743q35 0 68.5 -10t70 -36.5t64 -67.5t45 -109.5
t17.5 -156.5q0 -74 -12 -134.5t-33.5 -101t-47.5 -70t-56.5 -45.5t-59 -23t-56.5 -7t-56.5 7t-59 23t-56.5 45.5t-47.5 70t-33.5 101t-12 134.5q0 88 17.5 156.5t45 109.5t64 67.5t70 36.5t68.5 10z" />
    <glyph glyph-name="one" unicode="1" 
d="M542 0h-429v71h171v572l-171 -60v71l190 75h76v-658h163v-71z" />
    <glyph glyph-name="two" unicode="2" 
d="M40 78q21 61 69.5 114t100.5 90.5t101.5 75t81.5 83t32 98.5q0 58 -47.5 95.5t-112.5 37.5q-102 0 -207 -50v76q94 45 207 45q103 0 179 -57.5t76 -146.5q0 -34 -14 -67.5t-32 -58.5t-52 -55t-57 -47t-63 -45q-134 -97 -168 -195h386v-71h-480v78z" />
    <glyph glyph-name="three" unicode="3" 
d="M362 388q45 -7 79.5 -25.5t52 -39t28.5 -45.5t13.5 -41.5t2.5 -31.5q0 -99 -70.5 -161t-182.5 -62q-117 0 -205 32v78q112 -39 205 -39q72 0 115 41.5t43 110.5q0 62 -47 94q-71 49 -167 49h-56v71h56q79 0 137.5 35t58.5 97q0 53 -33 87t-107 34q-87 0 -187 -35v78
q80 28 187 28q66 0 114.5 -18.5t73.5 -49t36 -61.5t11 -63q0 -61 -43 -102t-115 -61z" />
    <glyph glyph-name="four" unicode="4" 
d="M488 0h-95v218h-353v71l353 436h95v-436h67v-71h-67v-218zM135 289h258v319z" />
    <glyph glyph-name="five" unicode="5" 
d="M202 53q241 0 241 166q0 42 -20 77.5t-56 53.5q-77 37 -219 37q-21 0 -52 -1v339h424v-71h-345v-197q149 -2 244 -47q55 -27 87 -78.5t32 -112.5q0 -41 -13.5 -78t-47.5 -75t-104.5 -61t-170.5 -23q-75 0 -124 17v78q69 -24 124 -24z" />
    <glyph glyph-name="six" unicode="6" 
d="M300 53q165 0 165 172q0 88 -45.5 131t-98.5 43q-73 0 -126.5 -43.5t-53.5 -110.5q0 -77 45 -134.5t114 -57.5zM321 464q114 0 176.5 -68t62.5 -171q0 -122 -71 -182.5t-189 -60.5q-60 0 -112 26.5t-85 75.5q-63 94 -63 279q0 96 23.5 168t57.5 111.5t81 63.5t84.5 30.5
t77.5 6.5q84 0 149 -32v-76q-79 37 -149 37q-40 0 -74.5 -11t-71 -39.5t-59 -90t-24.5 -149.5q32 38 81.5 60t104.5 22z" />
    <glyph glyph-name="seven" unicode="7" 
d="M484 640h-444v85h520v-85q-79 -93 -182 -273q-99 -173 -134 -367h-96q30 174 160 400q56 97 176 240z" />
    <glyph glyph-name="eight" unicode="8" 
d="M446 574q0 50 -43.5 81t-102.5 31t-102.5 -31t-43.5 -81q0 -21 11.5 -40t25.5 -31.5t41.5 -26t44 -20t48.5 -17.5q53 19 87 53.5t34 81.5zM465 187q0 116 -190 183q-61 -21 -100.5 -71t-39.5 -112q0 -63 49 -105.5t116 -42.5t116 42.5t49 105.5zM560 187q0 -60 -37 -108
t-96 -72.5t-127 -24.5t-127 24.5t-96 72.5t-37 108q0 71 51 124.5t130 81.5q-152 70 -152 181q0 77 68.5 123t162.5 46t162.5 -46t68.5 -123q0 -56 -42 -95.5t-110 -62.5q81 -39 131 -97t50 -132z" />
    <glyph glyph-name="nine" unicode="9" 
d="M135 500q0 -88 45.5 -131t98.5 -43q73 0 126.5 43.5t53.5 110.5q0 77 -45 134.5t-114 57.5q-165 0 -165 -172zM40 500q0 122 71 182.5t189 60.5q60 0 112 -26.5t85 -75.5q63 -95 63 -278q0 -96 -23.5 -168.5t-57.5 -112t-81 -63t-84.5 -30.5t-77.5 -7q-84 0 -149 32v76
q79 -37 149 -37q40 0 74.5 11t71 39.5t59 90t24.5 149.5q-32 -38 -81.5 -60t-104.5 -22q-114 0 -176.5 68t-62.5 171z" />
    <glyph glyph-name="colon" unicode=":" 
d="M371 388h-142v142h142v-142zM371 0h-142v142h142v-142z" />
    <glyph glyph-name="semicolon" unicode=";" 
d="M371 388h-142v142h142v-142zM371 32l-107 -174h-89l54 174v63h142v-63z" />
    <glyph glyph-name="less" unicode="&#x3c;" 
d="M560 30l-520 236v32l520 236v-80l-372 -172l372 -172v-80z" />
    <glyph glyph-name="equal" unicode="=" 
d="M560 175h-520v71h520v-71zM560 318h-520v71h520v-71z" />
    <glyph glyph-name="greater" unicode="&#x3e;" 
d="M560 298v-32l-520 -236v80l372 172l-372 172v80z" />
    <glyph glyph-name="question" unicode="?" 
d="M305 0h-95v95h95v-95zM210 242q0 59 26.5 100.5t64 63t74.5 40t63.5 45.5t26.5 66q0 58 -53 85.5t-131 27.5q-111 0 -223 -52v76q104 47 222 47q115 0 197.5 -45t82.5 -128q0 -37 -18 -66t-47 -49t-59.5 -37.5t-61.5 -40t-47 -46.5q-22 -34 -22 -87v-47h-95v47z" />
    <glyph glyph-name="at" unicode="@" 
d="M470 523q-14 135 -136 135q-101 0 -154 -89.5t-53 -271.5q0 -181 52.5 -270.5t151.5 -89.5q36 0 74 12v-64q-29 -8 -62 -8q-66 0 -118.5 24t-92.5 73.5t-62 131.5t-22 192t21.5 191.5t61.5 130.5t91.5 73t115.5 24q104 0 159 -58q20 -21 32 -46.5t16.5 -60t5.5 -57.5
t1 -65v-365h-79v36q-39 -36 -86 -36q-56 0 -95.5 54.5t-39.5 168.5q0 56 11.5 100t29.5 70t42.5 43t46.5 23t45 6t43 -7zM473 480q-11 3 -22 3q-38 0 -70 -33q-42 -44 -42 -151q0 -83 21.5 -123t56.5 -40q33 0 56 32v277v17.5v17.5z" />
    <glyph glyph-name="A" unicode="A" 
d="M590 0h-100l-68 202h-263l-66 -202h-83l236 725h100zM397 277l-109 323l-105 -323h214z" />
    <glyph glyph-name="B" unicode="B" 
d="M375 381q82 -18 136 -69t54 -128q0 -85 -67 -134q-24 -18 -52.5 -29t-66.5 -15t-63 -5t-72 -1h-184v725h179q56 0 87 -1.5t74 -13t72 -33.5q68 -52 68 -133q0 -64 -46.5 -106t-118.5 -57zM160 344v-269h111q38 0 58 1t48 7.5t47 20.5q41 30 41 84q0 64 -53 110
q-25 21 -60.5 32t-60 12.5t-69.5 1.5h-62zM160 419h69q40 0 61.5 1.5t52 10t52.5 25.5q45 35 45 87q0 49 -40 79q-17 13 -42 19.5t-43 7.5t-51 1h-104v-231z" />
    <glyph glyph-name="C" unicode="C" 
d="M30 362q0 176 86.5 278.5t239.5 102.5q99 0 209 -43v-85q-133 53 -209 53q-92 0 -149 -61q-67 -73 -67 -245q0 -171 67 -244q57 -61 143 -61q36 0 76.5 12.5t68.5 26.5t70 39v-94q-102 -59 -213 -59q-149 0 -235.5 102.5t-86.5 277.5z" />
    <glyph glyph-name="D" unicode="D" 
d="M465 365q0 122 -50 205q-17 29 -37 46t-45 24t-41.5 8.5t-46.5 1.5h-85v-575h58q34 0 52.5 1.5t46.5 8.5t50 24.5t42 46.5q56 84 56 209zM565 364q0 -151 -86 -258q-31 -38 -65.5 -61t-78 -32t-72 -11t-81.5 -2h-122v725h148q39 0 59.5 -1t55.5 -6t58.5 -16t51.5 -32
t51 -52q81 -108 81 -254z" />
    <glyph glyph-name="E" unicode="E" 
d="M576 0h-516v725h505v-75h-405v-224h328v-75h-328v-276h416v-75z" />
    <glyph glyph-name="F" unicode="F" 
d="M565 650h-405v-224h328v-75h-328v-351h-100v725h505v-75z" />
    <glyph glyph-name="G" unicode="G" 
d="M30 362q0 176 86.5 278.5t239.5 102.5q99 0 209 -43v-85q-133 53 -209 53q-92 0 -149 -61q-67 -73 -67 -245q0 -171 67 -244q57 -61 145 -61q46 0 113 21v192h-79v75h179v-314q-121 -49 -214 -49q-148 0 -234.5 102.5t-86.5 277.5z" />
    <glyph glyph-name="H" unicode="H" 
d="M540 0h-100v325h-280v-325h-100v725h100v-325h280v325h100v-725z" />
    <glyph glyph-name="I" unicode="I" 
d="M350 75h162v-75h-424v75h162v575h-162v75h424v-75h-162v-575z" />
    <glyph glyph-name="J" unicode="J" 
d="M432 270q0 -57 -2 -88t-17 -73t-45 -69q-66 -58 -186 -58q-78 0 -147 24v83q92 -32 142 -32q71 0 113 39q20 18 29.5 46.5t11 49t1.5 58.5v400h-193v75h426v-75h-133v-380z" />
    <glyph glyph-name="K" unicode="K" 
d="M582 0h-100l-281 327l-41 -44v-283h-100v725h100v-325l301 325h108l-316 -341z" />
    <glyph glyph-name="L" unicode="L" 
d="M590 0h-530v725h100v-650h430v-75z" />
    <glyph glyph-name="M" unicode="M" 
d="M565 0h-100v589l-137 -344h-63l-147 346v-591h-83v725h126l142 -334l133 334h129v-725z" />
    <glyph glyph-name="N" unicode="N" 
d="M143 0h-83v725h100l297 -567v567h83v-725h-100l-297 567v-567z" />
    <glyph glyph-name="O" unicode="O" 
d="M460 363q0 55 -2.5 90t-15.5 80.5t-38 78.5q-42 56 -104 56t-104 -56q-25 -33 -38 -78.5t-15.5 -80.5t-2.5 -90t2.5 -90.5t15.5 -81t38 -78.5q42 -56 104 -56t104 56q25 33 38 78.5t15.5 81t2.5 90.5zM300 743q35 0 69.5 -10t72 -36.5t65 -68t45.5 -110t18 -155.5
q0 -88 -18 -156.5t-45.5 -110t-65 -68t-72 -36.5t-69.5 -10t-69.5 10t-72 36.5t-65 68t-45.5 110t-18 156.5q0 87 18 155.5t45.5 110t65 68t72 36.5t69.5 10z" />
    <glyph glyph-name="P" unicode="P" 
d="M574 519q0 -104 -73 -169q-32 -28 -78 -42.5t-78.5 -16.5t-92.5 -2h-92v-289h-100v725h191q62 0 95.5 -2t80.5 -14.5t78 -37.5q69 -55 69 -152zM160 364h117q37 0 57 1.5t48.5 11t47.5 28.5q44 43 44 112q0 63 -42 99q-19 16 -47.5 24t-49 9t-58.5 1h-117v-286z" />
    <glyph glyph-name="Q" unicode="Q" 
d="M460 363q0 55 -2.5 90t-15.5 80.5t-38 78.5q-42 56 -104 56t-104 -56q-25 -33 -38 -78.5t-15.5 -80.5t-2.5 -90t2.5 -90.5t15.5 -81t38 -78.5q42 -56 104 -56q30 0 57 15q-20 47 -42.5 73.5t-54.5 35.5l20 73q83 -22 131 -131q31 46 40 102.5t9 137.5zM300 743
q35 0 69.5 -10t72 -36.5t65 -68t45.5 -110t18 -155.5q0 -73 -12 -132.5t-32 -98t-39 -61.5t-40 -39q24 -55 52 -83.5t66 -28.5v-75q-33 0 -62.5 14t-51.5 37.5t-37.5 48.5t-27.5 53q-41 -16 -86 -16q-35 0 -69.5 10t-72 36.5t-65 68t-45.5 110t-18 156.5q0 87 18 155.5
t45.5 110t65 68t72 36.5t69.5 10z" />
    <glyph glyph-name="R" unicode="R" 
d="M540 513q0 -18 -2 -35t-12 -47t-27.5 -53.5t-53 -46t-84.5 -32.5l237 -299h-116l-230 289h-49h-43v-289h-100v725h167q60 0 92.5 -2t78 -14.5t75.5 -38.5q67 -57 67 -157zM160 364h69q41 0 62.5 1.5t52 10.5t51.5 27q45 40 45 110q0 65 -40 102q-18 16 -45 24.5
t-46.5 9.5t-56.5 1h-92v-286z" />
    <glyph glyph-name="S" unicode="S" 
d="M565 198q0 -102 -81 -159t-204 -57q-135 0 -245 60v92q143 -77 260 -77q72 0 121 29t49 89q0 51 -40.5 84t-128.5 61l-45 15q-125 42 -170.5 83t-45.5 108q0 105 78.5 161t192.5 56q99 0 209 -43v-85q-131 53 -217 53q-68 0 -115.5 -27t-47.5 -87q0 -46 34 -67.5
t137 -55.5l46 -14q113 -37 163 -91t50 -128z" />
    <glyph glyph-name="T" unicode="T" 
d="M590 650h-240v-650h-100v650h-240v75h580v-75z" />
    <glyph glyph-name="U" unicode="U" 
d="M540 278q0 -58 -2 -89t-16.5 -74t-43.5 -71q-63 -62 -178 -62t-178 62q-29 28 -43.5 71t-16.5 74t-2 89v447h100v-466q0 -39 1.5 -60t10 -50t25.5 -49q38 -43 103 -43t104 43q17 20 25.5 49t9.5 50t1 60v466h100v-447z" />
    <glyph glyph-name="V" unicode="V" 
d="M312 125l195 600h83l-236 -725h-100l-244 725h100z" />
    <glyph glyph-name="W" unicode="W" 
d="M590 725l-65 -725h-105l-121 317l-103 -317h-113l-73 725h100l56 -560l103 315h68l120 -314l50 559h83z" />
    <glyph glyph-name="X" unicode="X" 
d="M577 0h-110l-172 283l-178 -283h-95l227 360l-222 365h110l168 -276l173 276h96l-223 -353z" />
    <glyph glyph-name="Y" unicode="Y" 
d="M354 0h-100v290l-226 435h100l184 -354l177 354h83l-218 -435v-290z" />
    <glyph glyph-name="Z" unicode="Z" 
d="M565 0h-530v93l428 557h-412v75h514v-93l-428 -557h428v-75z" />
    <glyph glyph-name="bracketleft" unicode="[" 
d="M520 -129h-340v888h340v-72h-245v-744h245v-72z" />
    <glyph glyph-name="backslash" unicode="\" 
d="M605 -129h-89l-521 888h89z" />
    <glyph glyph-name="bracketright" unicode="]" 
d="M420 -129h-340v72h245v744h-245v72h340v-888z" />
    <glyph glyph-name="asciicircum" unicode="^" 
d="M589 362h-93l-196 292l-196 -292h-93l243 361h92z" />
    <glyph glyph-name="underscore" unicode="_" 
d="M600 -71h-600v71h600v-71z" />
    <glyph glyph-name="grave" unicode="`" 
d="M170 593l-59 -1l-72 131v47l95 1v-48z" />
    <glyph glyph-name="a" unicode="a" 
d="M311 542q35 0 63.5 -4t49.5 -10t37 -17.5t26.5 -21t18 -26.5t11.5 -29t5.5 -33t2 -33t0.5 -35v-333h-95v83q-106 -95 -208 -95q-74 0 -118 41.5t-44 106.5q0 83 79 128q52 28 120.5 36.5t170.5 8.5v40q0 31 -3.5 49t-15.5 37t-40 27.5t-74 8.5q-97 0 -202 -38v71
q105 38 216 38zM430 141v111h-2q-55 0 -84 -1t-69 -7.5t-66 -20.5q-54 -30 -54 -82q0 -38 27.5 -60t73.5 -22q83 0 174 82z" />
    <glyph glyph-name="b" unicode="b" 
d="M545 303q0 -46 -8 -87.5t-29.5 -84t-54.5 -73.5t-87.5 -50.5t-124.5 -19.5q-95 0 -166 30v752h95v-327q76 99 189 99q35 0 65 -10.5t59 -35.5t45.5 -74.5t16.5 -118.5zM245 59q26 0 49 4t51.5 18.5t48 38.5t33 67.5t13.5 101.5q0 182 -118 182q-48 0 -88.5 -28t-63.5 -74
v-301q39 -9 75 -9z" />
    <glyph glyph-name="c" unicode="c" 
d="M155 265q0 -41 9 -75t30 -65t61 -48.5t97 -17.5q64 0 188 31v-75q-108 -27 -188 -27q-146 0 -219 77.5t-73 199.5q0 50 13.5 95t44.5 88t91.5 68.5t144.5 25.5q81 0 186 -23v-74q-119 26 -186 26q-199 0 -199 -206z" />
    <glyph glyph-name="d" unicode="d" 
d="M55 249q0 68 19 120.5t48.5 84.5t71 52.5t81.5 28t85 7.5q36 0 70 -5v233h95v-770h-95v77q-67 -89 -169 -89q-84 0 -145 64t-61 197zM358 471q-40 0 -73 -10t-62.5 -32.5t-46 -66t-16.5 -104.5q0 -100 38.5 -149.5t96.5 -49.5q45 0 80.5 27.5t54.5 72.5v303q-37 9 -72 9z
" />
    <glyph glyph-name="e" unicode="e" 
d="M166 325h277q-7 71 -42.5 108.5t-88.5 37.5t-93 -36.5t-53 -109.5zM346 -12q-67 0 -119.5 17t-84 44.5t-52 65.5t-28 75.5t-7.5 78.5q0 74 23 129t61 85t80 44.5t88 14.5t86 -14t74 -43t53.5 -80t19.5 -117q0 -16 -1 -34h-379q0 -57 14 -96.5t41 -60.5t59 -29.5t75 -8.5
q84 0 179 26v-71q-95 -26 -182 -26z" />
    <glyph glyph-name="f" unicode="f" 
d="M207 530q1 52 6.5 88.5t20.5 69.5t40.5 52.5t66 30.5t97.5 11q62 0 125 -15v-72q-68 16 -111 16q-39 0 -66.5 -9t-43.5 -24t-25 -39.5t-11.5 -49t-3.5 -59.5h167v-71h-167v-459h-95v459h-132v71h132z" />
    <glyph glyph-name="g" unicode="g" 
d="M300 231q73 0 99 33t26 87q0 56 -27.5 88t-97.5 32q-72 0 -98.5 -33t-26.5 -87q0 -56 27 -88t98 -32zM70 351q0 33 12.5 64.5t38 61t72 47.5t107.5 18q70 0 123 -25q59 61 131 61v-72q-51 0 -86 -19q62 -54 62 -136q0 -32 -12 -63.5t-37 -61.5t-72 -48.5t-109 -18.5
q-43 0 -81 10q-21 -17 -21 -39q0 -24 25 -35t88 -22l93 -18l15 -3t19 -4t19.5 -5t22 -7t20.5 -9t20.5 -12t16 -15t14.5 -18.5t8.5 -22.5t3.5 -27q0 -125 -257 -125q-145 0 -231 23v82q130 -34 283 -34q22 0 37 1t34 5t29 14t10 25q0 24 -19.5 35t-71.5 21l-93 18
q-67 13 -82 18q-37 11 -59 39t-22 58q0 48 41 80q-43 25 -67.5 67.5t-24.5 91.5z" />
    <glyph glyph-name="h" unicode="h" 
d="M430 347q0 24 -0.5 36t-4.5 32t-12.5 30t-24.5 18t-40 8q-102 0 -178 -117v-354h-95v770h95v-338q95 110 214 110q30 0 53 -7.5t37.5 -18t25 -30t15 -34t7 -41.5t3 -40.5t0.5 -41.5v-329h-95v347z" />
    <glyph glyph-name="i" unicode="i" 
d="M353 630h-95v95h95v-95zM353 71h172v-71h-450v71h183v388h-155v71h250v-459z" />
    <glyph glyph-name="j" unicode="j" 
d="M437 630h-95v95h95v-95zM437 52q0 -51 -2 -78t-17.5 -64.5t-46.5 -61.5q-67 -53 -182 -53q-50 0 -114 18v70q55 -17 100 -17q76 0 123 34q21 16 31 40.5t11.5 42.5t1.5 51v425h-173v71h268v-478z" />
    <glyph glyph-name="k" unicode="k" 
d="M568 0h-107l-249 238l-42 -38v-200h-95v770h95v-469l252 229h111l-260 -236z" />
    <glyph glyph-name="l" unicode="l" 
d="M353 71h172v-71h-450v71h183v628h-155v71h250v-699z" />
    <glyph glyph-name="m" unicode="m" 
d="M253 348q0 71 -9 97t-34 26q-24 0 -40 -17v-454h-95v530h95v-8q33 20 70 20q53 0 80 -42q41 42 97 42q23 0 41 -8.5t29 -19t19 -32.5t11.5 -36t5.5 -42t2 -38.5v-37.5v-328h-95v348q0 72 -8 97.5t-35 25.5q-29 0 -47 -26q7 -36 7 -117v-328h-94v348z" />
    <glyph glyph-name="n" unicode="n" 
d="M430 347q0 24 -0.5 36t-4.5 32t-12.5 30t-24.5 18t-40 8q-102 0 -178 -117v-354h-95v530h95v-98q95 110 214 110q30 0 53 -7.5t37.5 -18t25 -30t15 -34t7 -41.5t3 -40.5t0.5 -41.5v-329h-95v347z" />
    <glyph glyph-name="o" unicode="o" 
d="M440 265q0 119 -46 168q-38 38 -94 38t-94 -38q-46 -49 -46 -168t46 -168q38 -38 94 -38t94 38q46 49 46 168zM300 542q110 0 177.5 -75.5t67.5 -201.5t-67 -201.5t-178 -75.5q-110 0 -177.5 75.5t-67.5 201.5t67 201.5t178 75.5z" />
    <glyph glyph-name="p" unicode="p" 
d="M545 303q0 -46 -8 -87.5t-29.5 -84t-54.5 -73.5t-87.5 -50.5t-124.5 -19.5q-37 0 -71 5v-186h-95v723h95v-87q76 99 189 99q35 0 65 -10.5t59 -35.5t45.5 -74.5t16.5 -118.5zM245 59q26 0 49 4t51.5 18.5t48 38.5t33 67.5t13.5 101.5q0 182 -118 182q-48 0 -88.5 -28
t-63.5 -74v-301q39 -9 75 -9z" />
    <glyph glyph-name="q" unicode="q" 
d="M55 249q0 68 19 120.5t48.5 84.5t71 52.5t81.5 28t85 7.5q95 0 165 -30v-705h-95v270q-67 -89 -169 -89q-84 0 -145 64t-61 197zM358 471q-40 0 -73 -10t-62.5 -32.5t-46 -66t-16.5 -104.5q0 -100 38.5 -149.5t96.5 -49.5q45 0 80.5 27.5t54.5 72.5v303q-37 9 -72 9z" />
    <glyph glyph-name="r" unicode="r" 
d="M525 450q-35 7 -67 7q-81 0 -145.5 -37t-87.5 -98v-322h-95v530h95v-120q37 61 99 96.5t139 35.5q43 0 62 -4v-88z" />
    <glyph glyph-name="s" unicode="s" 
d="M528 154q0 -76 -70.5 -121t-185.5 -45q-109 0 -192 32v75q94 -36 203 -36q68 0 109 18.5t41 53.5q0 17 -9.5 31t-30 25t-35.5 17t-43 15l-77 25q-158 51 -158 148q0 70 70 110t170 40q71 0 173 -22v-75q-113 26 -185 26q-55 0 -94.5 -13t-39.5 -42q0 -15 10 -28t31 -23
t35.5 -16t40.5 -14l77 -25q74 -24 117 -60t43 -96z" />
    <glyph glyph-name="t" unicode="t" 
d="M302 177q0 -33 2 -50t11 -35t29.5 -25.5t54.5 -7.5t104 8v-71q-74 -8 -127 -8q-48 0 -80 9t-49.5 22.5t-26.5 42.5t-11 54t-2 72v271h-132v71h132v120h95v-120h201v-71h-201v-282z" />
    <glyph glyph-name="u" unicode="u" 
d="M170 185q0 -23 0.5 -36t5 -33t12.5 -30.5t24.5 -18.5t40.5 -8q52 0 97.5 32t79.5 85v354h95v-530h-95v98q-95 -110 -212 -110q-30 0 -53.5 8.5t-38.5 19t-25.5 32t-15.5 35.5t-7.5 42t-2.5 39.5v38.5v327h95v-345z" />
    <glyph glyph-name="v" unicode="v" 
d="M312 104l158 426h79l-197 -530h-95l-206 530h95z" />
    <glyph glyph-name="w" unicode="w" 
d="M590 530l-93 -530h-95l-97 266l-102 -266h-90l-103 530h85l78 -402l110 286h54l103 -286l71 402h79z" />
    <glyph glyph-name="x" unicode="x" 
d="M549 0h-95l-159 212l-157 -212h-95l204 276l-192 254h95l155 -206l153 206h95l-199 -270z" />
    <glyph glyph-name="y" unicode="y" 
d="M549 530l-269 -723h-79l63 168l-213 555h95l166 -424l158 424h79z" />
    <glyph glyph-name="z" unicode="z" 
d="M540 0h-480v74l367 385h-353v71h466v-74l-367 -385h367v-71z" />
    <glyph glyph-name="braceleft" unicode="{" 
d="M250 315q27 -17 49 -42t22 -40v-204q0 -39 35.5 -62.5t83.5 -23.5h40v-72h-40q-79 0 -138 44.5t-59 113.5v193q-46 57 -117 57v72q71 0 117 56v194q0 69 59 113.5t138 44.5h40v-72h-40q-48 0 -83.5 -23.5t-35.5 -62.5v-204q0 -16 -23 -41.5t-48 -40.5z" />
    <glyph glyph-name="bar" unicode="|" 
d="M339 -129h-78v888h78v-888z" />
    <glyph glyph-name="braceright" unicode="}" 
d="M350 315q-27 17 -49 42t-22 40v204q0 39 -35.5 62.5t-83.5 23.5h-40v72h40q79 0 138 -44.5t59 -113.5v-194q46 -56 117 -56v-72q-71 0 -117 -57v-193q0 -69 -59 -113.5t-138 -44.5h-40v72h40q48 0 83.5 23.5t35.5 62.5v204q0 16 23 41.5t48 40.5z" />
    <glyph glyph-name="asciitilde" unicode="~" 
d="M183 371q32 0 66 -16.5t57.5 -37t51.5 -37t51 -16.5q56 0 56 89h95q0 -66 -41.5 -113t-101.5 -47q-32 0 -66 16.5t-57.5 37t-51.5 37t-51 16.5q-56 0 -56 -89h-95q0 66 41.5 113t101.5 47z" />
    <glyph glyph-name="uni00A0" unicode="&#xa0;" 
 />
    <glyph glyph-name="dieresis" unicode="&#xa8;" 
d="M442 630h-95v95h95v-95zM253 630h-95v95h95v-95z" />
    <glyph glyph-name="uni00AD" unicode="&#xad;" 
d="M560 246h-520v72h520v-72z" />
    <glyph glyph-name="macron" unicode="&#xaf;" 
d="M442 630h-284v71h284v-71z" />
    <glyph glyph-name="acute" unicode="&#xb4;" 
d="M395 761l-114 -160h-57l76 160h95z" />
    <glyph glyph-name="Agrave" unicode="&#xc0;" 
d="M344 796h-57l-114 160h95zM590 0h-100l-68 202h-263l-66 -202h-83l236 725h100zM397 277l-109 323l-105 -323h214z" />
    <glyph glyph-name="Aacute" unicode="&#xc1;" 
d="M401 956l-114 -160h-57l76 160h95zM590 0h-100l-68 202h-263l-66 -202h-83l236 725h100zM397 277l-109 323l-105 -323h214z" />
    <glyph glyph-name="Acircumflex" unicode="&#xc2;" 
d="M444 796h-76l-81 90l-81 -90h-76l110 142h94zM590 0h-100l-68 202h-263l-66 -202h-83l236 725h100zM397 277l-109 323l-105 -323h214z" />
    <glyph glyph-name="Adieresis" unicode="&#xc4;" 
d="M429 825h-95v95h95v-95zM240 825h-95v95h95v-95zM590 0h-100l-68 202h-263l-66 -202h-83l236 725h100zM397 277l-109 323l-105 -323h214z" />
    <glyph glyph-name="Aring" unicode="&#xc5;" 
d="M344 894q0 24 -17 40.5t-40 16.5t-40 -16.5t-17 -40.5q0 -23 17 -39.5t40 -16.5t40 16.5t17 39.5zM401 894q0 -44 -34 -74t-80 -30t-80 30t-34 74t33.5 74t80.5 30t80.5 -30t33.5 -74zM590 0h-100l-68 202h-263l-66 -202h-83l236 725h100zM397 277l-109 323l-105 -323
h214z" />
    <glyph glyph-name="Egrave" unicode="&#xc8;" 
d="M370 796h-57l-114 160h95zM576 0h-516v725h505v-75h-405v-224h328v-75h-328v-276h416v-75z" />
    <glyph glyph-name="Eacute" unicode="&#xc9;" 
d="M426 956l-114 -160h-57l76 160h95zM576 0h-516v725h505v-75h-405v-224h328v-75h-328v-276h416v-75z" />
    <glyph glyph-name="Ecircumflex" unicode="&#xca;" 
d="M470 796h-76l-81 90l-81 -90h-76l110 142h94zM576 0h-516v725h505v-75h-405v-224h328v-75h-328v-276h416v-75z" />
    <glyph glyph-name="Edieresis" unicode="&#xcb;" 
d="M455 825h-95v95h95v-95zM266 825h-95v95h95v-95zM576 0h-516v725h505v-75h-405v-224h328v-75h-328v-276h416v-75z" />
    <glyph glyph-name="Igrave" unicode="&#xcc;" 
d="M357 796h-57l-114 160h95zM350 75h162v-75h-424v75h162v575h-162v75h424v-75h-162v-575z" />
    <glyph glyph-name="Iacute" unicode="&#xcd;" 
d="M414 956l-114 -160h-57l76 160h95zM350 75h162v-75h-424v75h162v575h-162v75h424v-75h-162v-575z" />
    <glyph glyph-name="Icircumflex" unicode="&#xce;" 
d="M457 796h-76l-81 90l-81 -90h-76l110 142h94zM350 75h162v-75h-424v75h162v575h-162v75h424v-75h-162v-575z" />
    <glyph glyph-name="Idieresis" unicode="&#xcf;" 
d="M442 825h-95v95h95v-95zM253 825h-95v95h95v-95zM350 75h162v-75h-424v75h162v575h-162v75h424v-75h-162v-575z" />
    <glyph glyph-name="Eth" unicode="&#xd0;" 
d="M465 365q0 122 -50 205q-17 29 -37 46t-45 24t-41.5 8.5t-46.5 1.5h-85v-250h137v-75h-137v-250h58q34 0 52.5 1.5t46.5 8.5t50 24.5t42 46.5q56 84 56 209zM565 364q0 -151 -86 -258q-31 -38 -65.5 -61t-78 -32t-72 -11t-81.5 -2h-122v325h-54v75h54v325h148
q39 0 59.5 -1t55.5 -6t58.5 -16t51.5 -32t51 -52q81 -108 81 -254z" />
    <glyph glyph-name="Ograve" unicode="&#xd2;" 
d="M357 796h-57l-114 160h95zM460 363q0 55 -2.5 90t-15.5 80.5t-38 78.5q-42 56 -104 56t-104 -56q-25 -33 -38 -78.5t-15.5 -80.5t-2.5 -90t2.5 -90.5t15.5 -81t38 -78.5q42 -56 104 -56t104 56q25 33 38 78.5t15.5 81t2.5 90.5zM300 743q35 0 69.5 -10t72 -36.5t65 -68
t45.5 -110t18 -155.5q0 -88 -18 -156.5t-45.5 -110t-65 -68t-72 -36.5t-69.5 -10t-69.5 10t-72 36.5t-65 68t-45.5 110t-18 156.5q0 87 18 155.5t45.5 110t65 68t72 36.5t69.5 10z" />
    <glyph glyph-name="Oacute" unicode="&#xd3;" 
d="M414 956l-114 -160h-57l76 160h95zM460 363q0 55 -2.5 90t-15.5 80.5t-38 78.5q-42 56 -104 56t-104 -56q-25 -33 -38 -78.5t-15.5 -80.5t-2.5 -90t2.5 -90.5t15.5 -81t38 -78.5q42 -56 104 -56t104 56q25 33 38 78.5t15.5 81t2.5 90.5zM300 743q35 0 69.5 -10t72 -36.5
t65 -68t45.5 -110t18 -155.5q0 -88 -18 -156.5t-45.5 -110t-65 -68t-72 -36.5t-69.5 -10t-69.5 10t-72 36.5t-65 68t-45.5 110t-18 156.5q0 87 18 155.5t45.5 110t65 68t72 36.5t69.5 10z" />
    <glyph glyph-name="Ocircumflex" unicode="&#xd4;" 
d="M457 796h-76l-81 90l-81 -90h-76l110 142h94zM460 363q0 55 -2.5 90t-15.5 80.5t-38 78.5q-42 56 -104 56t-104 -56q-25 -33 -38 -78.5t-15.5 -80.5t-2.5 -90t2.5 -90.5t15.5 -81t38 -78.5q42 -56 104 -56t104 56q25 33 38 78.5t15.5 81t2.5 90.5zM300 743q35 0 69.5 -10
t72 -36.5t65 -68t45.5 -110t18 -155.5q0 -88 -18 -156.5t-45.5 -110t-65 -68t-72 -36.5t-69.5 -10t-69.5 10t-72 36.5t-65 68t-45.5 110t-18 156.5q0 87 18 155.5t45.5 110t65 68t72 36.5t69.5 10z" />
    <glyph glyph-name="Odieresis" unicode="&#xd6;" 
d="M442 825h-95v95h95v-95zM253 825h-95v95h95v-95zM460 363q0 55 -2.5 90t-15.5 80.5t-38 78.5q-42 56 -104 56t-104 -56q-25 -33 -38 -78.5t-15.5 -80.5t-2.5 -90t2.5 -90.5t15.5 -81t38 -78.5q42 -56 104 -56t104 56q25 33 38 78.5t15.5 81t2.5 90.5zM300 743
q35 0 69.5 -10t72 -36.5t65 -68t45.5 -110t18 -155.5q0 -88 -18 -156.5t-45.5 -110t-65 -68t-72 -36.5t-69.5 -10t-69.5 10t-72 36.5t-65 68t-45.5 110t-18 156.5q0 87 18 155.5t45.5 110t65 68t72 36.5t69.5 10z" />
    <glyph glyph-name="Ugrave" unicode="&#xd9;" 
d="M357 796h-57l-114 160h95zM540 278q0 -58 -2 -89t-16.5 -74t-43.5 -71q-63 -62 -178 -62t-178 62q-29 28 -43.5 71t-16.5 74t-2 89v447h100v-466q0 -39 1.5 -60t10 -50t25.5 -49q38 -43 103 -43t104 43q17 20 25.5 49t9.5 50t1 60v466h100v-447z" />
    <glyph glyph-name="Uacute" unicode="&#xda;" 
d="M414 956l-114 -160h-57l76 160h95zM540 278q0 -58 -2 -89t-16.5 -74t-43.5 -71q-63 -62 -178 -62t-178 62q-29 28 -43.5 71t-16.5 74t-2 89v447h100v-466q0 -39 1.5 -60t10 -50t25.5 -49q38 -43 103 -43t104 43q17 20 25.5 49t9.5 50t1 60v466h100v-447z" />
    <glyph glyph-name="Ucircumflex" unicode="&#xdb;" 
d="M457 796h-76l-81 90l-81 -90h-76l110 142h94zM540 278q0 -58 -2 -89t-16.5 -74t-43.5 -71q-63 -62 -178 -62t-178 62q-29 28 -43.5 71t-16.5 74t-2 89v447h100v-466q0 -39 1.5 -60t10 -50t25.5 -49q38 -43 103 -43t104 43q17 20 25.5 49t9.5 50t1 60v466h100v-447z" />
    <glyph glyph-name="Udieresis" unicode="&#xdc;" 
d="M442 825h-95v95h95v-95zM253 825h-95v95h95v-95zM540 278q0 -58 -2 -89t-16.5 -74t-43.5 -71q-63 -62 -178 -62t-178 62q-29 28 -43.5 71t-16.5 74t-2 89v447h100v-466q0 -39 1.5 -60t10 -50t25.5 -49q38 -43 103 -43t104 43q17 20 25.5 49t9.5 50t1 60v466h100v-447z
" />
    <glyph glyph-name="Yacute" unicode="&#xdd;" 
d="M414 956l-114 -160h-57l76 160h95zM354 0h-100v290l-226 435h100l184 -354l177 354h83l-218 -435v-290z" />
    <glyph glyph-name="Thorn" unicode="&#xde;" 
d="M160 0h-100v725h100v-138h91q63 0 96 -2t80 -14.5t78 -37.5q69 -56 69 -152q0 -104 -73 -169q-32 -28 -78 -42.5t-78.5 -16.5t-92.5 -2h-92v-151zM160 512v-286h157q82 0 119.5 47t37.5 106q0 57 -37.5 95t-119.5 38h-157z" />
    <glyph glyph-name="germandbls" unicode="&#xdf;" 
d="M465 627q0 -38 -20 -76t-44.5 -63.5t-44.5 -53.5t-20 -48q0 -38 64 -69l36 -17q49 -22 76.5 -54.5t27.5 -87.5q0 -74 -50.5 -122t-135.5 -48q-81 0 -131 27v84q75 -40 139 -40q41 0 62 21.5t21 51.5q0 17 -6.5 30t-21 24t-23.5 16t-28 14l-37 17q-41 19 -64.5 57.5
t-23.5 82.5q0 39 20 75.5t44.5 61t44.5 55.5t20 60q0 36 -26 61t-67 25q-48 0 -78 -30q-14 -14 -20.5 -34.5t-7.5 -35.5t-1 -43v-568h-95v550q0 46 2 70.5t14 58.5t37 56q53 47 143 47q82 0 138 -44t56 -111z" />
    <glyph glyph-name="agrave" unicode="&#xe0;" 
d="M363 601h-57l-114 160h95zM311 542q35 0 63.5 -4t49.5 -10t37 -17.5t26.5 -21t18 -26.5t11.5 -29t5.5 -33t2 -33t0.5 -35v-333h-95v83q-106 -95 -208 -95q-74 0 -118 41.5t-44 106.5q0 83 79 128q52 28 120.5 36.5t170.5 8.5v40q0 31 -3.5 49t-15.5 37t-40 27.5t-74 8.5
q-97 0 -202 -38v71q105 38 216 38zM430 141v111h-2q-55 0 -84 -1t-69 -7.5t-66 -20.5q-54 -30 -54 -82q0 -38 27.5 -60t73.5 -22q83 0 174 82z" />
    <glyph glyph-name="aacute" unicode="&#xe1;" 
d="M420 761l-114 -160h-57l76 160h95zM311 542q35 0 63.5 -4t49.5 -10t37 -17.5t26.5 -21t18 -26.5t11.5 -29t5.5 -33t2 -33t0.5 -35v-333h-95v83q-106 -95 -208 -95q-74 0 -118 41.5t-44 106.5q0 83 79 128q52 28 120.5 36.5t170.5 8.5v40q0 31 -3.5 49t-15.5 37t-40 27.5
t-74 8.5q-97 0 -202 -38v71q105 38 216 38zM430 141v111h-2q-55 0 -84 -1t-69 -7.5t-66 -20.5q-54 -30 -54 -82q0 -38 27.5 -60t73.5 -22q83 0 174 82z" />
    <glyph glyph-name="acircumflex" unicode="&#xe2;" 
d="M463 601h-76l-81 90l-81 -90h-76l110 142h94zM311 542q35 0 63.5 -4t49.5 -10t37 -17.5t26.5 -21t18 -26.5t11.5 -29t5.5 -33t2 -33t0.5 -35v-333h-95v83q-106 -95 -208 -95q-74 0 -118 41.5t-44 106.5q0 83 79 128q52 28 120.5 36.5t170.5 8.5v40q0 31 -3.5 49t-15.5 37
t-40 27.5t-74 8.5q-97 0 -202 -38v71q105 38 216 38zM430 141v111h-2q-55 0 -84 -1t-69 -7.5t-66 -20.5q-54 -30 -54 -82q0 -38 27.5 -60t73.5 -22q83 0 174 82z" />
    <glyph glyph-name="adieresis" unicode="&#xe4;" 
d="M448 630h-95v95h95v-95zM259 630h-95v95h95v-95zM311 542q35 0 63.5 -4t49.5 -10t37 -17.5t26.5 -21t18 -26.5t11.5 -29t5.5 -33t2 -33t0.5 -35v-333h-95v83q-106 -95 -208 -95q-74 0 -118 41.5t-44 106.5q0 83 79 128q52 28 120.5 36.5t170.5 8.5v40q0 31 -3.5 49
t-15.5 37t-40 27.5t-74 8.5q-97 0 -202 -38v71q105 38 216 38zM430 141v111h-2q-55 0 -84 -1t-69 -7.5t-66 -20.5q-54 -30 -54 -82q0 -38 27.5 -60t73.5 -22q83 0 174 82z" />
    <glyph glyph-name="aring" unicode="&#xe5;" 
d="M363 699q0 24 -17 40.5t-40 16.5t-40 -16.5t-17 -40.5q0 -23 17 -39.5t40 -16.5t40 16.5t17 39.5zM420 699q0 -44 -34 -74t-80 -30t-80 30t-34 74t33.5 74t80.5 30t80.5 -30t33.5 -74zM311 542q35 0 63.5 -4t49.5 -10t37 -17.5t26.5 -21t18 -26.5t11.5 -29t5.5 -33t2 -33
t0.5 -35v-333h-95v83q-106 -95 -208 -95q-74 0 -118 41.5t-44 106.5q0 83 79 128q52 28 120.5 36.5t170.5 8.5v40q0 31 -3.5 49t-15.5 37t-40 27.5t-74 8.5q-97 0 -202 -38v71q105 38 216 38zM430 141v111h-2q-55 0 -84 -1t-69 -7.5t-66 -20.5q-54 -30 -54 -82
q0 -38 27.5 -60t73.5 -22q83 0 174 82z" />
    <glyph glyph-name="egrave" unicode="&#xe8;" 
d="M376 601h-57l-114 160h95zM166 325h277q-7 71 -42.5 108.5t-88.5 37.5t-93 -36.5t-53 -109.5zM346 -12q-67 0 -119.5 17t-84 44.5t-52 65.5t-28 75.5t-7.5 78.5q0 74 23 129t61 85t80 44.5t88 14.5t86 -14t74 -43t53.5 -80t19.5 -117q0 -16 -1 -34h-379q0 -57 14 -96.5
t41 -60.5t59 -29.5t75 -8.5q84 0 179 26v-71q-95 -26 -182 -26z" />
    <glyph glyph-name="eacute" unicode="&#xe9;" 
d="M433 761l-114 -160h-57l76 160h95zM166 325h277q-7 71 -42.5 108.5t-88.5 37.5t-93 -36.5t-53 -109.5zM346 -12q-67 0 -119.5 17t-84 44.5t-52 65.5t-28 75.5t-7.5 78.5q0 74 23 129t61 85t80 44.5t88 14.5t86 -14t74 -43t53.5 -80t19.5 -117q0 -16 -1 -34h-379
q0 -57 14 -96.5t41 -60.5t59 -29.5t75 -8.5q84 0 179 26v-71q-95 -26 -182 -26z" />
    <glyph glyph-name="ecircumflex" unicode="&#xea;" 
d="M476 601h-76l-81 90l-81 -90h-76l110 142h94zM166 325h277q-7 71 -42.5 108.5t-88.5 37.5t-93 -36.5t-53 -109.5zM346 -12q-67 0 -119.5 17t-84 44.5t-52 65.5t-28 75.5t-7.5 78.5q0 74 23 129t61 85t80 44.5t88 14.5t86 -14t74 -43t53.5 -80t19.5 -117q0 -16 -1 -34
h-379q0 -57 14 -96.5t41 -60.5t59 -29.5t75 -8.5q84 0 179 26v-71q-95 -26 -182 -26z" />
    <glyph glyph-name="edieresis" unicode="&#xeb;" 
d="M461 630h-95v95h95v-95zM272 630h-95v95h95v-95zM166 325h277q-7 71 -42.5 108.5t-88.5 37.5t-93 -36.5t-53 -109.5zM346 -12q-67 0 -119.5 17t-84 44.5t-52 65.5t-28 75.5t-7.5 78.5q0 74 23 129t61 85t80 44.5t88 14.5t86 -14t74 -43t53.5 -80t19.5 -117q0 -16 -1 -34
h-379q0 -57 14 -96.5t41 -60.5t59 -29.5t75 -8.5q84 0 179 26v-71q-95 -26 -182 -26z" />
    <glyph glyph-name="igrave" unicode="&#xec;" 
d="M357 601h-57l-114 160h95zM353 71h172v-71h-450v71h183v388h-155v71h250v-459z" />
    <glyph glyph-name="iacute" unicode="&#xed;" 
d="M414 761l-114 -160h-57l76 160h95zM353 71h172v-71h-450v71h183v388h-155v71h250v-459z" />
    <glyph glyph-name="icircumflex" unicode="&#xee;" 
d="M457 601h-76l-81 90l-81 -90h-76l110 142h94zM353 71h172v-71h-450v71h183v388h-155v71h250v-459z" />
    <glyph glyph-name="idieresis" unicode="&#xef;" 
d="M442 630h-95v95h95v-95zM253 630h-95v95h95v-95zM353 71h172v-71h-450v71h183v388h-155v71h250v-459z" />
    <glyph glyph-name="eth" unicode="&#xf0;" 
d="M540 263q0 -62 -14 -110.5t-37.5 -78.5t-55 -50t-64.5 -28t-69 -8t-69 8t-64.5 27.5t-55 50t-37.5 79t-14 109.5q0 62 14.5 110.5t37 78.5t54 49.5t62.5 27t65 7.5q48 0 82 -17q-35 57 -83 104l-140 -51l-15 42l116 42q-55 42 -121 67l67 39q73 -28 135 -76l141 51
l15 -42l-117 -43q79 -75 123 -175.5t44 -212.5zM445 265q0 213 -138 213q-69 0 -110.5 -52t-41.5 -158q0 -107 40.5 -158t104.5 -51t104.5 50.5t40.5 155.5z" />
    <glyph glyph-name="ograve" unicode="&#xf2;" 
d="M357 601h-57l-114 160h95zM440 265q0 119 -46 168q-38 38 -94 38t-94 -38q-46 -49 -46 -168t46 -168q38 -38 94 -38t94 38q46 49 46 168zM300 542q110 0 177.5 -75.5t67.5 -201.5t-67 -201.5t-178 -75.5q-110 0 -177.5 75.5t-67.5 201.5t67 201.5t178 75.5z" />
    <glyph glyph-name="oacute" unicode="&#xf3;" 
d="M414 761l-114 -160h-57l76 160h95zM440 265q0 119 -46 168q-38 38 -94 38t-94 -38q-46 -49 -46 -168t46 -168q38 -38 94 -38t94 38q46 49 46 168zM300 542q110 0 177.5 -75.5t67.5 -201.5t-67 -201.5t-178 -75.5q-110 0 -177.5 75.5t-67.5 201.5t67 201.5t178 75.5z" />
    <glyph glyph-name="ocircumflex" unicode="&#xf4;" 
d="M457 601h-76l-81 90l-81 -90h-76l110 142h94zM440 265q0 119 -46 168q-38 38 -94 38t-94 -38q-46 -49 -46 -168t46 -168q38 -38 94 -38t94 38q46 49 46 168zM300 542q110 0 177.5 -75.5t67.5 -201.5t-67 -201.5t-178 -75.5q-110 0 -177.5 75.5t-67.5 201.5t67 201.5
t178 75.5z" />
    <glyph glyph-name="odieresis" unicode="&#xf6;" 
d="M442 630h-95v95h95v-95zM253 630h-95v95h95v-95zM440 265q0 119 -46 168q-38 38 -94 38t-94 -38q-46 -49 -46 -168t46 -168q38 -38 94 -38t94 38q46 49 46 168zM300 542q110 0 177.5 -75.5t67.5 -201.5t-67 -201.5t-178 -75.5q-110 0 -177.5 75.5t-67.5 201.5t67 201.5
t178 75.5z" />
    <glyph glyph-name="ugrave" unicode="&#xf9;" 
d="M357 601h-57l-114 160h95zM170 185q0 -23 0.5 -36t5 -33t12.5 -30.5t24.5 -18.5t40.5 -8q52 0 97.5 32t79.5 85v354h95v-530h-95v98q-95 -110 -212 -110q-30 0 -53.5 8.5t-38.5 19t-25.5 32t-15.5 35.5t-7.5 42t-2.5 39.5v38.5v327h95v-345z" />
    <glyph glyph-name="uacute" unicode="&#xfa;" 
d="M414 761l-114 -160h-57l76 160h95zM170 185q0 -23 0.5 -36t5 -33t12.5 -30.5t24.5 -18.5t40.5 -8q52 0 97.5 32t79.5 85v354h95v-530h-95v98q-95 -110 -212 -110q-30 0 -53.5 8.5t-38.5 19t-25.5 32t-15.5 35.5t-7.5 42t-2.5 39.5v38.5v327h95v-345z" />
    <glyph glyph-name="ucircumflex" unicode="&#xfb;" 
d="M457 601h-76l-81 90l-81 -90h-76l110 142h94zM170 185q0 -23 0.5 -36t5 -33t12.5 -30.5t24.5 -18.5t40.5 -8q52 0 97.5 32t79.5 85v354h95v-530h-95v98q-95 -110 -212 -110q-30 0 -53.5 8.5t-38.5 19t-25.5 32t-15.5 35.5t-7.5 42t-2.5 39.5v38.5v327h95v-345z" />
    <glyph glyph-name="udieresis" unicode="&#xfc;" 
d="M442 630h-95v95h95v-95zM253 630h-95v95h95v-95zM170 185q0 -23 0.5 -36t5 -33t12.5 -30.5t24.5 -18.5t40.5 -8q52 0 97.5 32t79.5 85v354h95v-530h-95v98q-95 -110 -212 -110q-30 0 -53.5 8.5t-38.5 19t-25.5 32t-15.5 35.5t-7.5 42t-2.5 39.5v38.5v327h95v-345z" />
    <glyph glyph-name="yacute" unicode="&#xfd;" 
d="M414 761l-114 -160h-57l76 160h95zM549 530l-269 -723h-79l63 168l-213 555h95l166 -424l158 424h79z" />
    <glyph glyph-name="thorn" unicode="&#xfe;" 
d="M545 303q0 -46 -8 -87.5t-29.5 -84t-54.5 -73.5t-87.5 -50.5t-124.5 -19.5q-37 0 -71 5v-186h-95v963h95v-327q76 99 189 99q35 0 65 -10.5t59 -35.5t45.5 -74.5t16.5 -118.5zM245 59q26 0 49 4t51.5 18.5t48 38.5t33 67.5t13.5 101.5q0 182 -118 182q-48 0 -88.5 -28
t-63.5 -74v-301q39 -9 75 -9z" />
    <glyph glyph-name="ydieresis" unicode="&#xff;" 
d="M442 630h-95v95h95v-95zM253 630h-95v95h95v-95zM549 530l-269 -723h-79l63 168l-213 555h95l166 -424l158 424h79z" />
    <glyph glyph-name="Ydieresis" unicode="&#x178;" 
d="M442 825h-95v95h95v-95zM253 825h-95v95h95v-95zM354 0h-100v290l-226 435h100l184 -354l177 354h83l-218 -435v-290z" />
    <glyph glyph-name="circumflex" unicode="&#x2c6;" 
d="M457 601h-76l-81 90l-81 -90h-76l110 142h94z" />
    <glyph glyph-name="uni2000" unicode="&#x2000;" horiz-adv-x="499" 
 />
    <glyph glyph-name="uni2001" unicode="&#x2001;" horiz-adv-x="998" 
 />
    <glyph glyph-name="uni2002" unicode="&#x2002;" horiz-adv-x="499" 
 />
    <glyph glyph-name="uni2003" unicode="&#x2003;" horiz-adv-x="998" 
 />
    <glyph glyph-name="uni2004" unicode="&#x2004;" horiz-adv-x="332" 
 />
    <glyph glyph-name="uni2005" unicode="&#x2005;" horiz-adv-x="249" 
 />
    <glyph glyph-name="uni2006" unicode="&#x2006;" horiz-adv-x="166" 
 />
    <glyph glyph-name="uni2007" unicode="&#x2007;" horiz-adv-x="166" 
 />
    <glyph glyph-name="uni2008" unicode="&#x2008;" horiz-adv-x="124" 
 />
    <glyph glyph-name="uni2009" unicode="&#x2009;" horiz-adv-x="199" 
 />
    <glyph glyph-name="uni200A" unicode="&#x200a;" horiz-adv-x="55" 
 />
    <glyph glyph-name="uni2010" unicode="&#x2010;" 
d="M560 246h-520v72h520v-72z" />
    <glyph glyph-name="uni2011" unicode="&#x2011;" 
d="M560 246h-520v72h520v-72z" />
    <glyph glyph-name="quoteleft" unicode="&#x2018;" 
d="M343 770l-36 -174v-63h-94v63l71 174h59z" />
    <glyph glyph-name="quoteright" unicode="&#x2019;" 
d="M387 707l-71 -174h-59l36 174v63h94v-63z" />
    <glyph glyph-name="quotedblleft" unicode="&#x201c;" 
d="M479 770l-36 -174v-63h-95v63l72 174h59zM247 770l-35 -174v-63h-95v63l71 174h59z" />
    <glyph glyph-name="quotedblright" unicode="&#x201d;" 
d="M483 707l-71 -174h-59l35 174v63h95v-63zM252 707l-72 -174h-59l36 174v63h95v-63z" />
    <glyph glyph-name="uni202F" unicode="&#x202f;" horiz-adv-x="199" 
 />
    <glyph glyph-name="uni205F" unicode="&#x205f;" horiz-adv-x="249" 
 />
  </font>
</defs>
</svg>
