<?xml version="1.0" standalone="no"?><!DOCTYPE svg PUBLIC "-//W3C//DTD SVG 1.1//EN" "http://www.w3.org/Graphics/SVG/1.1/DTD/svg11.dtd"><svg t="1549540117915" class="icon" style="" viewBox="0 0 1525 1024" version="1.1" xmlns="http://www.w3.org/2000/svg" p-id="2721" xmlns:xlink="http://www.w3.org/1999/xlink" width="190.625" height="128"><defs><style type="text/css"></style></defs><path d="M761.173333 30.72C340.309333 30.72 0 380.586667 0 812.373333h1522.346667C1522.346667 380.586667 1182.037333 30.72 761.173333 30.72z" fill="#FFF2EB" p-id="2722"></path><path d="M760.832 197.973333C427.008 197.973333 157.013333 477.866667 157.013333 822.613333h1208.32c-0.682667-345.429333-270.677333-624.64-604.501333-624.64z" fill="#FFDECF" p-id="2723"></path><path d="M761.514667 358.4C518.144 358.4 320.853333 560.469333 320.853333 808.96h880.64c0.682667-248.490667-196.266667-450.56-439.978666-450.56z" fill="#FFCEB3" p-id="2724"></path><path d="M46.08 819.2H14.677333c-6.144 0-11.264 5.461333-11.264 11.264 0 6.144 5.461333 11.264 11.264 11.264h30.378667c6.144 0 11.264-5.461333 11.264-11.264 0.341333-5.802667-4.096-11.264-10.24-11.264z m552.96 0H88.746667c-6.144 0-11.264 5.461333-11.264 11.264 0 6.144 5.461333 11.264 11.264 11.264h509.610666c6.144 0 11.264-5.461333 11.264-11.264 0-5.802667-4.437333-11.264-10.581333-11.264z m66.218667 0h-20.48c-6.144 0-11.264 5.461333-11.264 11.264 0 6.144 5.461333 11.264 11.264 11.264h20.48c6.144 0 11.264-5.461333 11.264-11.264 0-5.802667-5.12-11.264-11.264-11.264z m748.544 0H704.853333c-6.144 0-11.264 5.461333-11.264 11.264 0 6.144 5.461333 11.264 11.264 11.264h708.949334c6.144 0 11.264-5.461333 11.264-11.264 0-5.802667-5.12-11.264-11.264-11.264z m100.693333 0h-38.912c-6.144 0-11.264 5.461333-11.264 11.264 0 6.144 5.461333 11.264 11.264 11.264h38.912c6.144 0 11.264-5.461333 11.264-11.264 0-5.802667-5.461333-11.264-11.264-11.264z m-798.378667 136.533333h-31.061333c-6.144 0-11.264 5.461333-11.264 11.264 0 6.144 5.461333 11.264 11.264 11.264h30.378667c6.144 0 11.264-5.461333 11.264-11.264 0.341333-5.802667-4.437333-11.264-10.581334-11.264z m689.152-3.754666h-196.608c-6.826667-24.917333-29.013333-43.349333-55.637333-43.349334-27.306667 0-51.882667 19.797333-56.32 46.421334H757.76c-6.144 0-11.264 5.461333-11.264 11.264s5.461333 11.264 11.264 11.264h338.944c5.461333 26.624 28.330667 46.421333 56.32 46.421333 29.696 0 53.248-21.162667 57.002667-50.176h194.218666c6.144 0 11.264-5.461333 11.264-11.264s-4.096-10.581333-10.24-10.581333z m-251.904 50.176c-19.797333 0-35.84-16.042667-35.84-35.498667s16.042667-35.498667 35.84-35.498667 35.84 16.042667 35.84 35.498667-16.042667 35.498667-35.84 35.498667z" fill="#FC7256" p-id="2725"></path><path d="M344.746667 430.08c0 169.984 137.216 307.2 307.2 307.2s307.2-137.216 307.2-307.2-137.216-307.2-307.2-307.2-307.2 137.216-307.2 307.2z" fill="#FFF8FF" p-id="2726"></path><path d="M650.24 744.106667c-175.445333 0-319.146667-141.994667-319.146667-317.44s143.018667-317.44 319.146667-317.44S969.386667 251.221333 969.386667 426.666667c-0.682667 175.445333-143.701333 317.44-319.146667 317.44z m0-612.352c-163.498667 0-296.96 132.437333-296.96 295.594666s133.12 295.594667 296.96 295.594667 296.96-132.437333 296.96-295.594667-133.461333-295.594667-296.96-295.594666z" fill="#FC7256" p-id="2727"></path><path d="M672.426667 609.28c0 64.853333 108.885333 117.76 243.712 117.76s243.712-52.906667 244.394666-117.76c0-64.853333-108.885333-117.76-243.712-117.76S672.426667 543.744 672.426667 609.28z" fill="#FFFFFF" p-id="2728"></path><path d="M913.066667 737.28c-142.677333 0-254.293333-57.002667-254.293334-129.706667s111.616-129.706667 254.293334-129.706666 254.293333 57.002667 254.293333 129.706666c0 72.021333-111.616 129.706667-254.293333 129.706667z m0-237.568c-125.952 0-232.448 49.152-232.448 107.861333s106.154667 107.861333 232.448 107.861334 232.448-49.152 232.448-107.861334-106.496-107.861333-232.448-107.861333z" fill="#FC7256" p-id="2729"></path><path d="M916.48 389.12c-83.968 0-151.893333 58.026667-151.893333 130.730667 0 24.234667 7.509333 46.08 20.48 65.877333 41.984 5.12 85.333333 8.192 131.413333 8.192s90.112-3.072 131.413333-8.192c13.653333-19.797333 20.48-41.642667 20.48-65.877333 0-71.68-67.925333-130.730667-151.893333-130.730667z" fill="#FFFFFF" p-id="2730"></path><path d="M916.48 607.573333c-44.714667 0-89.429333-3.072-131.754667-8.192-3.072-0.682667-6.144-2.389333-7.509333-5.461333-15.018667-21.162667-22.869333-47.104-22.869333-72.704 0-78.848 72.704-142.336 162.133333-142.336s162.133333 63.488 162.133333 142.336c0 25.6-7.509333 49.834667-22.869333 72.704-1.365333 3.072-4.437333 4.437333-7.509333 5.461333-42.325333 5.12-87.04 8.192-131.754667 8.192z m-123.562667-30.378666c80.213333 9.898667 167.594667 9.898667 248.490667 0 10.581333-17.408 16.042667-36.181333 16.042667-55.978667 0-66.56-62.805333-119.808-140.288-119.808s-140.288 53.930667-140.288 119.808c-0.682667 20.48 5.461333 39.253333 16.042666 55.978667z" fill="#FC7256" p-id="2731"></path><path d="M768 641.706667c0 13.312 10.581333 23.893333 23.893333 23.893333s23.893333-10.581333 23.893334-23.893333-10.581333-23.893333-23.893334-23.893334-23.893333 10.581333-23.893333 23.893334z" fill="#FFCEB3" p-id="2732"></path><path d="M793.6 679.253333c-19.797333 0-35.84-16.042667-35.84-35.84s16.042667-35.84 35.84-35.84 35.84 16.042667 35.84 35.84-16.042667 35.84-35.84 35.84z m0-49.493333c-7.509333 0-13.653333 6.144-13.653333 13.653333s6.144 13.653333 13.653333 13.653334 13.653333-6.144 13.653333-13.653334-6.826667-13.653333-13.653333-13.653333z" fill="#FC7256" p-id="2733"></path><path d="M1010.346667 641.706667c0 13.312 10.581333 23.893333 23.893333 23.893333s23.893333-10.581333 23.893333-23.893333-10.581333-23.893333-23.893333-23.893334-23.893333 11.264-23.893333 23.893334z" fill="#FFCEB3" p-id="2734"></path><path d="M1039.36 679.253333c-19.797333 0-35.84-16.042667-35.84-35.84s16.042667-35.84 35.84-35.84 35.84 16.042667 35.84 35.84-16.725333 35.84-35.84 35.84z m0-49.493333c-7.509333 0-13.653333 6.144-13.653333 13.653333s6.144 13.653333 13.653333 13.653334 13.653333-6.144 13.653333-13.653334-6.826667-13.653333-13.653333-13.653333z" fill="#FC7256" p-id="2735"></path><path d="M894.293333 658.773333c0 13.312 10.581333 23.893333 23.893334 23.893334s23.893333-10.581333 23.893333-23.893334-10.581333-23.893333-23.893333-23.893333-23.893333 10.581333-23.893334 23.893333z" fill="#FFCEB3" p-id="2736"></path><path d="M916.48 696.32c-19.797333 0-35.84-16.042667-35.84-35.84s16.042667-35.84 35.84-35.84 35.84 16.042667 35.84 35.84c0.682667 19.114667-16.042667 35.157333-35.84 35.84z m0-49.493333c-7.509333 0-13.653333 6.144-13.653333 13.653333 0 6.826667 6.144 13.653333 13.653333 13.653333s13.653333-6.144 13.653333-13.653333c0-8.533333-6.144-13.653333-13.653333-13.653333z" fill="#FC7256" p-id="2737"></path><path d="M672.426667 296.96c0 37.546667 30.72 68.266667 68.266666 68.266667s68.266667-30.72 68.266667-68.266667-30.72-68.266667-68.266667-68.266667-67.584 30.72-68.266666 68.266667z" fill="#FFFFFF" p-id="2738"></path><path d="M738.986667 368.64c-44.714667 0-80.213333-34.816-80.213334-76.8S694.954667 215.04 738.986667 215.04c44.714667 0 80.213333 34.816 80.213333 76.8-0.682667 41.984-36.181333 76.8-80.213333 76.8z m0-132.096c-31.744 0-57.002667 25.258667-57.002667 54.613333s26.282667 54.613333 57.002667 54.613334 57.002667-25.258667 57.002666-54.613334-25.258667-54.613333-57.002666-54.613333z" fill="#FC7256" p-id="2739"></path><path d="M471.04 399.36c0 11.946667 9.557333 20.48 20.48 20.48 11.946667 0 20.48-9.557333 20.48-20.48 0-11.946667-9.557333-20.48-20.48-20.48s-20.48 8.533333-20.48 20.48z" fill="#FFFFFF" p-id="2740"></path><path d="M491.52 423.253333c-17.066667 0-30.72-13.653333-30.72-30.72s13.653333-30.72 30.72-30.72 30.72 13.653333 30.72 30.72-13.653333 30.72-30.72 30.72z m0-39.594666c-5.12 0-8.874667 3.754667-8.874667 8.874666s3.754667 8.874667 8.874667 8.874667 8.874667-3.754667 8.874667-8.874667-3.754667-8.874667-8.874667-8.874666z" fill="#FC7256" p-id="2741"></path><path d="M518.826667 551.594667c0 25.6 19.456 45.738667 44.373333 45.738666s44.373333-20.138667 44.373333-45.738666v-0.682667c0-25.6-19.456-45.738667-44.373333-45.738667-24.234667 0.682667-44.373333 20.821333-44.373333 46.421334z" fill="#FFFFFF" p-id="2742"></path><path d="M569.002667 606.208c-31.402667 0-56.32-24.917333-56.32-55.637333s25.258667-55.637333 56.32-55.637334c31.402667 0 56.32 24.917333 56.32 55.637334s-25.258667 55.637333-56.32 55.637333z m0-88.746667c-19.114667 0-34.474667 15.018667-34.474667 33.792s15.36 33.792 34.474667 33.792 34.474667-15.018667 34.474666-33.792c-0.341333-19.456-15.36-33.792-34.474666-33.792zM1200.810667 740.693333h-931.84c-6.144 0-11.605333-5.12-11.605334-11.264s5.461333-11.264 11.605334-11.264h931.157333c6.144 0 11.605333 5.12 11.605333 11.264s-4.778667 11.264-10.922666 11.264z m85.674666 0h-31.402666c-6.144 0-11.605333-5.12-11.605334-11.264s5.461333-11.264 11.605334-11.264h30.378666c6.144 0 11.605333 5.12 11.605334 11.264s-4.437333 11.264-10.581334 11.264z m-1059.498666 0h-30.378667c-6.144 0-11.605333-5.12-11.605333-11.264s5.461333-11.264 11.605333-11.264h30.378667c6.144 0 11.605333 5.12 11.605333 11.264s-5.461333 11.264-11.605333 11.264zM126.293333 346.794667c-24.576 0-44.373333-19.456-44.373333-43.690667 0-23.893333 19.797333-43.690667 44.373333-43.690667s44.373333 19.456 44.373334 43.690667c-0.341333 23.893333-19.456 43.690667-44.373334 43.690667z m0-66.218667c-12.288 0-22.186667 9.898667-22.186666 21.845333 0 11.946667 9.898667 21.845333 22.186666 21.845334s22.186667-9.898667 22.186667-21.845334c0-12.288-9.216-21.845333-22.186667-21.845333z" fill="#FC7256" p-id="2743"></path><path d="M479.914667 54.613333h-65.536c-6.144 0-11.605333-5.461333-11.605334-11.946666s5.461333-11.946667 11.605334-11.946667h65.536c6.144 0 11.605333 5.461333 11.605333 11.946667s-5.461333 11.946667-11.605333 11.946666z" fill="#F9B785" p-id="2744"></path><path d="M443.392 87.04c-6.144 0-11.264-5.461333-11.264-11.264V11.264c0-6.144 5.461333-11.264 11.264-11.264 6.144 0 11.264 5.461333 11.264 11.264v64.512c-0.341333 6.144-5.12 11.264-11.264 11.264z m448.170667 24.917333c-25.941333 0-47.104-21.162667-47.104-47.104s21.162667-47.104 47.104-47.104S938.666667 39.253333 938.666667 65.194667s-21.162667 46.762667-47.104 46.762666z m0-70.997333c-13.653333 0-25.258667 11.264-25.258667 24.917333s11.264 24.917333 25.258667 24.917334c13.653333 0 25.258667-11.264 25.258666-24.917334s-11.605333-24.917333-25.258666-24.917333zM128 645.12H62.464c-6.144 0-11.264-5.461333-11.264-11.264 0-6.144 5.461333-11.264 11.264-11.264h65.536c6.144 0 11.264 5.461333 11.264 11.264-0.341333 5.802667-5.12 11.264-11.264 11.264z" fill="#F9B785" p-id="2745"></path><path d="M96.597333 679.253333c-6.144 0-11.264-5.461333-11.264-11.605333v-65.536c0-6.144 5.461333-11.605333 11.264-11.605333 6.144 0 11.264 5.461333 11.264 11.605333v65.536c-0.341333 6.144-5.12 11.605333-11.264 11.605333z m1196.373334-111.274666c-21.162667 0-38.229333-17.408-38.229334-38.229334 0-21.504 17.408-38.229333 38.229334-38.229333 21.162667 0 38.229333 17.408 38.229333 38.229333 0.682667 20.48-16.725333 38.229333-38.229333 38.229334z m0-54.954667c-9.216 0-16.042667 6.826667-16.042667 16.042667s6.826667 16.042667 16.042667 16.042666 16.042667-6.826667 16.042666-16.042666-6.826667-16.042667-16.042666-16.042667z" fill="#F9B785" p-id="2746"></path></svg>